<svg width="40.703102" height="34.118652" viewBox="0 0 40.7031 34.1187" fill="none" xmlns="http://www.w3.org/2000/svg" xmlns:xlink="http://www.w3.org/1999/xlink">
	<desc>
			Created with Pixso.
	</desc>
	<defs/>
	<path id="Vector" d="M33.4339 4.57666C32.4301 3.42236 31.0961 2.60449 29.6123 2.23291C28.1284 1.86182 26.5664 1.95508 25.1374 2.50049C23.7083 3.0459 22.4813 4.01709 21.6222 5.28271C20.7631 6.54834 20.3134 8.04688 20.3339 9.57666L20.3339 11.2432C17.4049 11.3193 14.5027 10.6694 11.8856 9.35205C9.26846 8.03516 7.01775 6.09082 5.33389 3.69336C5.33389 3.69336 -1.33279 18.6934 13.6672 25.3599C10.2348 27.6899 6.14581 28.8579 2.00055 28.6934C17.0005 37.0264 35.3339 28.6934 35.3339 9.52637C35.3323 9.0625 35.2877 8.59912 35.2006 8.14307C36.9016 6.46582 38.1019 4.34766 38.6672 2.02637C37.0712 3.15234 35.3041 4.01318 33.4339 4.57666Z" stroke="#000000" stroke-opacity="1.000000" stroke-width="4.000000" stroke-linejoin="round"/>
</svg>
